<svg xmlns="http://www.w3.org/2000/svg" xmlns:xlink="http://www.w3.org/1999/xlink" width="40" zoomAndPan="magnify" viewBox="0 0 30 30.000001" height="40" preserveAspectRatio="xMidYMid meet" version="1.2"><defs><clipPath id="0a5f7590ba"><path d="M 1.933594 1.453125 L 28.066406 1.453125 L 28.066406 27.582031 L 1.933594 27.582031 Z M 1.933594 1.453125 "/></clipPath></defs><g id="ce109ccd31"><g clip-rule="nonzero" clip-path="url(#0a5f7590ba)"><path style=" stroke:none;fill-rule:nonzero;fill:#00d5be;fill-opacity:1;" d="M 15 27.582031 C 14.140625 27.582031 13.292969 27.496094 12.453125 27.328125 C 11.609375 27.164062 10.792969 26.914062 10 26.585938 C 9.207031 26.257812 8.453125 25.855469 7.742188 25.378906 C 7.027344 24.902344 6.367188 24.359375 5.761719 23.753906 C 5.15625 23.148438 4.613281 22.488281 4.136719 21.773438 C 3.660156 21.0625 3.257812 20.308594 2.929688 19.515625 C 2.601562 18.722656 2.355469 17.90625 2.1875 17.066406 C 2.019531 16.222656 1.933594 15.375 1.933594 14.515625 C 1.933594 13.660156 2.019531 12.808594 2.1875 11.96875 C 2.355469 11.125 2.601562 10.308594 2.929688 9.515625 C 3.257812 8.722656 3.660156 7.972656 4.136719 7.257812 C 4.613281 6.542969 5.15625 5.882812 5.761719 5.277344 C 6.367188 4.671875 7.027344 4.128906 7.742188 3.652344 C 8.453125 3.175781 9.207031 2.773438 10 2.445312 C 10.792969 2.117188 11.609375 1.871094 12.453125 1.703125 C 13.292969 1.535156 14.140625 1.453125 15 1.453125 C 15.859375 1.453125 16.707031 1.535156 17.546875 1.703125 C 18.390625 1.871094 19.207031 2.117188 20 2.445312 C 20.792969 2.773438 21.546875 3.175781 22.257812 3.652344 C 22.972656 4.128906 23.632812 4.671875 24.238281 5.277344 C 24.84375 5.882812 25.386719 6.542969 25.863281 7.257812 C 26.339844 7.972656 26.742188 8.722656 27.070312 9.515625 C 27.398438 10.308594 27.644531 11.125 27.8125 11.96875 C 27.980469 12.808594 28.066406 13.660156 28.066406 14.515625 C 28.066406 15.375 27.980469 16.222656 27.8125 17.066406 C 27.644531 17.90625 27.398438 18.722656 27.070312 19.515625 C 26.742188 20.308594 26.339844 21.0625 25.863281 21.773438 C 25.386719 22.488281 24.84375 23.148438 24.238281 23.753906 C 23.632812 24.359375 22.972656 24.902344 22.257812 25.378906 C 21.546875 25.855469 20.792969 26.257812 20 26.585938 C 19.207031 26.914062 18.390625 27.164062 17.546875 27.328125 C 16.707031 27.496094 15.859375 27.582031 15 27.582031 Z M 16.867188 9.957031 C 16.75 9.941406 16.632812 9.949219 16.519531 9.980469 C 16.40625 10.015625 16.308594 10.070312 16.21875 10.148438 C 16.128906 10.222656 16.058594 10.316406 16.007812 10.421875 C 15.960938 10.53125 15.933594 10.640625 15.933594 10.761719 L 15.933594 12.90625 C 15.933594 13.09375 15.992188 13.261719 16.105469 13.40625 C 16.222656 13.554688 16.371094 13.648438 16.554688 13.691406 C 16.898438 13.769531 17.21875 13.90625 17.511719 14.109375 C 17.804688 14.308594 18.050781 14.554688 18.25 14.847656 C 18.449219 15.140625 18.585938 15.460938 18.664062 15.804688 C 18.742188 16.148438 18.753906 16.5 18.699219 16.847656 C 18.644531 17.199219 18.527344 17.527344 18.351562 17.832031 C 18.171875 18.136719 17.941406 18.402344 17.664062 18.621094 C 17.386719 18.839844 17.078125 19 16.738281 19.101562 C 16.398438 19.203125 16.050781 19.238281 15.699219 19.210938 C 15.347656 19.179688 15.011719 19.085938 14.695312 18.929688 C 14.375 18.773438 14.097656 18.5625 13.859375 18.300781 C 13.621094 18.039062 13.441406 17.742188 13.316406 17.410156 C 13.1875 17.078125 13.128906 16.738281 13.132812 16.382812 L 13.132812 7.515625 C 13.132812 7.332031 13.097656 7.152344 13.027344 6.980469 C 12.957031 6.808594 12.855469 6.660156 12.722656 6.527344 C 12.59375 6.394531 12.441406 6.296875 12.269531 6.222656 C 12.097656 6.152344 11.917969 6.117188 11.734375 6.117188 L 10.800781 6.117188 C 10.613281 6.117188 10.4375 6.152344 10.265625 6.222656 C 10.09375 6.296875 9.941406 6.394531 9.8125 6.527344 C 9.679688 6.660156 9.578125 6.808594 9.507812 6.980469 C 9.4375 7.152344 9.402344 7.332031 9.402344 7.515625 L 9.402344 16.214844 C 9.394531 16.636719 9.429688 17.054688 9.503906 17.46875 C 9.582031 17.882812 9.695312 18.285156 9.84375 18.675781 C 9.996094 19.070312 10.183594 19.445312 10.40625 19.800781 C 10.628906 20.160156 10.882812 20.492188 11.167969 20.800781 C 11.453125 21.109375 11.765625 21.390625 12.105469 21.636719 C 12.445312 21.886719 12.804688 22.101562 13.183594 22.285156 C 13.566406 22.464844 13.957031 22.609375 14.367188 22.714844 C 14.773438 22.820312 15.1875 22.886719 15.605469 22.914062 C 16.011719 22.921875 16.414062 22.886719 16.816406 22.816406 C 17.214844 22.746094 17.605469 22.640625 17.984375 22.5 C 18.363281 22.355469 18.726562 22.179688 19.074219 21.96875 C 19.421875 21.757812 19.746094 21.519531 20.050781 21.25 C 20.351562 20.976562 20.625 20.679688 20.871094 20.359375 C 21.121094 20.039062 21.335938 19.695312 21.519531 19.332031 C 21.703125 18.972656 21.851562 18.59375 21.964844 18.207031 C 22.074219 17.816406 22.152344 17.417969 22.191406 17.015625 C 22.230469 16.609375 22.234375 16.207031 22.195312 15.804688 C 22.160156 15.398438 22.085938 15 21.976562 14.609375 C 21.867188 14.21875 21.722656 13.84375 21.542969 13.480469 C 21.359375 13.117188 21.148438 12.773438 20.90625 12.449219 C 20.660156 12.125 20.386719 11.824219 20.085938 11.554688 C 19.789062 11.28125 19.464844 11.035156 19.121094 10.824219 C 18.773438 10.609375 18.410156 10.429688 18.035156 10.285156 C 17.65625 10.140625 17.265625 10.03125 16.867188 9.957031 Z M 16.867188 9.957031 "/></g></g></svg>